<svg width="700" height="760" viewBox="0 0 700 760" fill="none" xmlns="http://www.w3.org/2000/svg" role="img" aria-labelledby="title desc">
  <title id="title">Nanhi Potli logo</title>
  <desc id="desc">Pastel baby wrapped in a pink swaddle with floral accents.</desc>
  <rect width="700" height="760" fill="#FCF7F5"/>
  <circle cx="350" cy="310" r="220" fill="#FFF8F6"/>

  <g opacity="0.95">
    <path d="M350 145C337 145 324 156 324 171C324 190 335 202 350 202C365 202 376 190 376 171C376 156 363 145 350 145Z" fill="#F7D4CC"/>
    <path d="M292 236C292 182 324 154 350 154C376 154 408 182 408 236V408C408 445 381 473 350 473C319 473 292 445 292 408V236Z" fill="#F3B8BA"/>
    <path d="M264 344C264 275 305 235 350 235C395 235 436 275 436 344C436 430 393 492 350 492C307 492 264 430 264 344Z" fill="#F8CCCF"/>
    <path d="M262 350C286 386 322 408 350 408C378 408 414 386 438 350C438 442 396 530 350 530C304 530 262 442 262 350Z" fill="#EFAFB8"/>
  </g>

  <g>
    <circle cx="350" cy="288" r="64" fill="#F6DFC9"/>
    <path d="M308 278C324 258 356 252 385 272" stroke="#BA8A67" stroke-width="7" stroke-linecap="round"/>
    <path d="M327 307C333 314 341 314 347 307" stroke="#9C6B54" stroke-width="4" stroke-linecap="round"/>
    <path d="M353 307C359 314 367 314 373 307" stroke="#9C6B54" stroke-width="4" stroke-linecap="round"/>
    <path d="M337 334C347 341 360 341 370 334" stroke="#9C6B54" stroke-width="4" stroke-linecap="round"/>
    <circle cx="322" cy="322" r="7" fill="#F1B0B6"/>
    <circle cx="378" cy="322" r="7" fill="#F1B0B6"/>
  </g>

  <g fill="#D6B173" opacity="0.95">
    <path d="M226 206L234 224L252 232L234 240L226 258L218 240L200 232L218 224L226 206Z"/>
    <path d="M477 200L485 218L503 226L485 234L477 252L469 234L451 226L469 218L477 200Z"/>
  </g>

  <g fill="#D8E6C8" opacity="0.95">
    <ellipse cx="228" cy="412" rx="46" ry="15" transform="rotate(-30 228 412)"/>
    <ellipse cx="473" cy="412" rx="46" ry="15" transform="rotate(30 473 412)"/>
    <ellipse cx="208" cy="445" rx="36" ry="12" transform="rotate(-12 208 445)"/>
    <ellipse cx="492" cy="445" rx="36" ry="12" transform="rotate(12 492 445)"/>
  </g>
</svg>
